# Blender v2.92.0 OBJ File: ''
# www.blender.org
mtllib core.mtl
o çƒ
v 0.303123 -0.099021 -0.989106
v 0.309862 0.943318 -0.282181
v 0.535892 0.509071 -0.745914
v 0.365776 -0.587846 -0.796820
v 0.920339 0.090717 -0.481215
v 0.994283 -0.325682 -0.007848
v 0.381094 -0.957124 -0.247577
v 0.896644 0.536957 0.154152
v 0.758648 -0.455126 0.554121
v 0.543800 0.239745 0.869746
v 0.330811 0.868611 0.444585
v 0.114305 -0.658113 0.793022
v 0.075435 0.206945 1.022576
v -0.365299 0.515348 0.825499
v -0.410482 -0.311945 0.895952
v -0.188929 0.987324 0.243577
v -0.759100 0.586728 0.361253
v -0.967598 -0.188229 0.397977
v 0.073739 -1.024805 0.154873
v -0.597196 -0.785468 0.362565
v -0.768860 0.643993 -0.294522
v -0.976248 -0.030688 -0.390646
v -0.529483 -0.832290 -0.315235
v -0.204401 0.885148 -0.530755
v -0.321139 0.152368 -0.975815
v -0.510430 -0.502699 -0.751821
vt 0.827247 0.811383
vt 0.652882 0.664370
vt 0.804071 0.544218
vt 0.734375 1.000000
vt 0.608795 0.860754
vt 0.702279 0.471674
vt 0.570091 0.517255
vt 0.502420 0.401904
vt 0.680720 0.309712
vt 0.473272 0.663288
vt 0.399088 0.361369
vt 0.594211 0.175775
vt 0.585427 0.074202
vt 0.339916 0.571809
vt 0.270653 0.283141
vt 0.352620 0.815540
vt 0.259675 0.563607
vt 0.185728 0.401903
vt 0.180802 0.654772
vt 0.085170 0.234428
vt 0.184898 0.893619
vt 0.070316 0.695143
vt 1.000000 0.334687
vt 0.943585 0.488328
vt 0.907378 0.207006
vt 0.996354 0.174786
vt 0.000000 0.725079
vt 0.000000 0.479867
vt 0.058578 0.450163
vt 0.235909 0.074785
vt 0.845200 0.344076
vt 0.985236 0.918502
vt 0.941907 0.713127
vt 0.945930 0.046024
vn 0.0142 0.5174 -0.8556
vn -0.0493 0.9903 -0.1297
vn 0.2095 0.7626 -0.6120
vn 0.6197 0.0752 -0.7812
vn 0.7750 -0.4095 -0.4813
vn 0.6823 0.6693 -0.2942
vn 0.6880 -0.7151 0.1238
vn 0.5221 -0.8115 0.2623
vn 0.9193 0.0303 0.3924
vn 0.8844 0.0634 0.4624
vn 0.4083 -0.2698 0.8720
vn 0.2112 0.5955 0.7751
vn 0.0210 -0.2555 0.9666
vn -0.3480 0.0984 0.9323
vn -0.2994 -0.6591 0.6899
vn -0.4337 0.7596 0.4847
vn -0.8665 -0.4913 -0.0886
vn -0.8501 -0.5243 -0.0487
vn 0.1134 0.3312 -0.9367
vn 0.6585 -0.2009 -0.7252
vn 0.7898 0.5154 -0.3325
vn 0.7294 -0.5581 -0.3956
vn -0.9605 0.2734 0.0529
vn 0.9914 0.1213 -0.0482
vn 0.5314 0.8441 0.0714
vn 0.1865 0.9778 0.0951
vn 0.6143 0.5741 0.5413
vn 0.4131 -0.8007 0.4338
vn 0.3164 -0.2300 0.9203
vn 0.0992 0.6326 0.7681
vn -0.0598 0.7841 0.6178
vn -0.1496 -0.8531 0.4997
vn -0.6507 0.0996 0.7528
vn -0.6507 -0.4403 0.6186
vn -0.7255 0.2260 0.6501
vn -0.5619 0.8233 0.0803
vn -0.0882 -0.8125 -0.5763
vn -0.4290 0.8966 -0.1097
vn -0.3268 -0.9445 0.0326
vn -0.7869 -0.4755 -0.3933
vn -0.5078 0.5049 -0.6980
vn -0.6805 0.3042 -0.6667
vn -0.6539 -0.0687 -0.7535
vn -0.1102 -0.3291 -0.9378
vn -0.1134 -0.9620 -0.2484
usemtl None
s off
f 24/1/1 3/2/1 25/3/1
f 24/1/2 16/4/2 2/5/2
f 2/5/3 3/2/3 24/1/3
f 1/6/4 3/2/4 5/7/4
f 5/7/5 6/8/5 4/9/5
f 2/5/6 8/10/6 3/2/6
f 6/8/7 9/11/7 7/12/7
f 7/12/8 9/11/8 19/13/8
f 8/10/9 9/11/9 6/8/9
f 8/10/10 10/14/10 9/11/10
f 10/14/11 12/15/11 9/11/11
f 11/16/12 13/17/12 10/14/12
f 13/17/13 15/18/13 12/15/13
f 14/19/14 15/18/14 13/17/14
f 15/18/15 20/20/15 12/15/15
f 14/19/16 16/21/16 17/22/16
f 18/23/17 22/24/17 23/25/17
f 18/23/18 23/25/18 20/26/18
f 25/3/19 3/2/19 1/6/19
f 1/6/20 5/7/20 4/9/20
f 3/2/21 8/10/21 5/7/21
f 7/12/22 4/9/22 6/8/22
f 21/27/23 22/28/23 18/29/23 17/22/23
f 5/7/24 8/10/24 6/8/24
f 2/5/25 11/16/25 8/10/25
f 2/5/26 16/21/26 11/16/26
f 8/10/27 11/16/27 10/14/27
f 19/13/28 9/11/28 12/15/28
f 10/14/29 13/17/29 12/15/29
f 11/16/30 14/19/30 13/17/30
f 14/19/31 11/16/31 16/21/31
f 19/30/32 12/15/32 20/20/32
f 15/18/33 14/19/33 18/29/33
f 15/18/34 18/29/34 20/20/34
f 18/29/35 14/19/35 17/22/35
f 17/22/36 16/21/36 21/27/36
f 7/12/37 23/25/37 26/31/37 4/9/37
f 16/32/38 24/1/38 21/33/38
f 20/26/39 23/25/39 19/34/39
f 23/25/40 22/24/40 26/31/40
f 21/33/41 24/1/41 25/3/41
f 22/24/42 21/33/42 25/3/42
f 22/24/43 25/3/43 26/31/43
f 4/9/44 26/31/44 25/3/44 1/6/44
f 19/34/45 23/25/45 7/12/45
